HIERARCHY
ROOT hip
{
  OFFSET 0 0 0
  CHANNELS 6 Xposition Yposition Zposition Zrotation Yrotation Xrotation
  JOINT abdomen
  {
    OFFSET 0 20.6881 -0.73152
    CHANNELS 3 Zrotation Xrotation Yrotation
    JOINT chest
    {
      OFFSET 0 11.7043 -0.48768
      CHANNELS 3 Zrotation Xrotation Yrotation
      JOINT neck
      {
        OFFSET 0 22.1894 -2.19456
        CHANNELS 3 Zrotation Xrotation Yrotation
        JOINT head
        {
          OFFSET -0.24384 7.07133 1.2192
          CHANNELS 3 Zrotation Xrotation Yrotation
          JOINT leftEye
          {
            OFFSET 4.14528 8.04674 8.04672
            CHANNELS 3 Zrotation Xrotation Yrotation
            End Site
            {
              OFFSET 1 0 0
            }
          }
          JOINT rightEye
          {
            OFFSET -3.6576 8.04674 8.04672
            CHANNELS 3 Zrotation Xrotation Yrotation
            End Site
            {
              OFFSET 1 0 0
            }
          }
        }
      }
      JOINT rCollar
      {
        OFFSET -2.68224 19.2634 -4.8768
        CHANNELS 3 Zrotation Xrotation Yrotation
        JOINT rShldr
        {
          OFFSET -8.77824 -1.95073 1.46304
          CHANNELS 3 Zrotation Xrotation Yrotation
          JOINT rForeArm
          {
            OFFSET -28.1742 -1.7115 0.48768
            CHANNELS 3 Zrotation Xrotation Yrotation
            JOINT rHand
            {
              OFFSET -22.5879 0.773209 7.07136
              CHANNELS 3 Zrotation Xrotation Yrotation
              JOINT rThumb1
              {
                OFFSET -1.2192 -0.487915 3.41376
                CHANNELS 3 Zrotation Xrotation Yrotation
                JOINT rThumb2
                {
                  OFFSET -3.37035 -0.52449 3.41376
                  CHANNELS 3 Zrotation Xrotation Yrotation
                  End Site
                  {
                    OFFSET -1.78271 -1.18214 1.43049
                  }
                }
              }
              JOINT rIndex1
              {
                OFFSET -7.75947 0.938293 5.60832
                CHANNELS 3 Zrotation Xrotation Yrotation
                JOINT rIndex2
                {
                  OFFSET -2.54057 -0.884171 1.56538
                  CHANNELS 3 Zrotation Xrotation Yrotation
                  End Site
                  {
                    OFFSET -1.62519 -0.234802 1.16502
                  }
                }
              }
              JOINT rMid1
              {
                OFFSET -8.24714 1.18213 3.41376
                CHANNELS 3 Zrotation Xrotation Yrotation
                JOINT rMid2
                {
                  OFFSET -3.10165 -0.590103 1.0647
                  CHANNELS 3 Zrotation Xrotation Yrotation
                  End Site
                  {
                    OFFSET -2.48547 -0.328903 0.83742
                  }
                }
              }
              JOINT rRing1
              {
                OFFSET -8.82822 0.546677 1.51678
                CHANNELS 3 Zrotation Xrotation Yrotation
                JOINT rRing2
                {
                  OFFSET -2.60934 -0.819778 -0.0198488
                  CHANNELS 3 Zrotation Xrotation Yrotation
                  End Site
                  {
                    OFFSET -2.33842 -0.294052 0.168128
                  }
                }
              }
              JOINT rPinky1
              {
                OFFSET -8.27202 -0.0477905 -0.4584
                CHANNELS 3 Zrotation Xrotation Yrotation
                JOINT rPinky2
                {
                  OFFSET -1.82734 -0.647385 -0.700984
                  CHANNELS 3 Zrotation Xrotation Yrotation
                  End Site
                  {
                    OFFSET -1.69225 -0.51767 -0.607171
                  }
                }
              }
            }
          }
        }
      }
      JOINT lCollar
      {
        OFFSET 2.68224 19.2634 -4.8768
        CHANNELS 3 Zrotation Xrotation Yrotation
        JOINT lShldr
        {
          OFFSET 8.77824 -1.95073 1.46304
          CHANNELS 3 Zrotation Xrotation Yrotation
          JOINT lForeArm
          {
            OFFSET 28.1742 -1.7115 0.48768
            CHANNELS 3 Zrotation Xrotation Yrotation
            JOINT lHand
            {
              OFFSET 22.5879 0.773209 7.07136
              CHANNELS 3 Zrotation Xrotation Yrotation
              JOINT lThumb1
              {
                OFFSET 1.2192 -0.487915 3.41376
                CHANNELS 3 Zrotation Xrotation Yrotation
                JOINT lThumb2
                {
                  OFFSET 3.37035 -0.52449 3.41376
                  CHANNELS 3 Zrotation Xrotation Yrotation
                  End Site
                  {
                    OFFSET 1.78271 -1.18214 1.43049
                  }
                }
              }
              JOINT lIndex1
              {
                OFFSET 7.75947 0.938293 5.60832
                CHANNELS 3 Zrotation Xrotation Yrotation
                JOINT lIndex2
                {
                  OFFSET 2.54057 -0.884171 1.56538
                  CHANNELS 3 Zrotation Xrotation Yrotation
                  End Site
                  {
                    OFFSET 1.62519 -0.234802 1.16502
                  }
                }
              }
              JOINT lMid1
              {
                OFFSET 8.24714 1.18213 3.41376
                CHANNELS 3 Zrotation Xrotation Yrotation
                JOINT lMid2
                {
                  OFFSET 3.10165 -0.590103 1.0647
                  CHANNELS 3 Zrotation Xrotation Yrotation
                  End Site
                  {
                    OFFSET 2.48547 -0.328903 0.83742
                  }
                }
              }
              JOINT lRing1
              {
                OFFSET 8.82822 0.546677 1.51678
                CHANNELS 3 Zrotation Xrotation Yrotation
                JOINT lRing2
                {
                  OFFSET 2.60934 -0.819778 -0.0198488
                  CHANNELS 3 Zrotation Xrotation Yrotation
                  End Site
                  {
                    OFFSET 2.33842 -0.294052 0.168128
                  }
                }
              }
              JOINT lPinky1
              {
                OFFSET 8.27202 -0.0477905 -0.4584
                CHANNELS 3 Zrotation Xrotation Yrotation
                JOINT lPinky2
                {
                  OFFSET 1.82734 -0.647385 -0.700984
                  CHANNELS 3 Zrotation Xrotation Yrotation
                  End Site
                  {
                    OFFSET 1.69225 -0.51767 -0.607171
                  }
                }
              }
            }
          }
        }
      }
    }
  }
  JOINT rButtock
  {
    OFFSET -8.77824 4.35084 1.2192
    CHANNELS 3 Zrotation Xrotation Yrotation
    JOINT rThigh
    {
      OFFSET 0 -1.70687 -2.19456
      CHANNELS 3 Zrotation Xrotation Yrotation
      JOINT rShin
      {
        OFFSET 0 -36.8199 0.73152
        CHANNELS 3 Zrotation Xrotation Yrotation
        JOINT rFoot
        {
          OFFSET 0.73152 -45.1104 -5.12064
          CHANNELS 3 Zrotation Xrotation Yrotation
          End Site
          {
            OFFSET -1.1221 -3.69964 12.103
          }
        }
      }
    }
  }
  JOINT lButtock
  {
    OFFSET 8.77824 4.35084 1.2192
    CHANNELS 3 Zrotation Xrotation Yrotation
    JOINT lThigh
    {
      OFFSET 0 -1.70687 -2.19456
      CHANNELS 3 Zrotation Xrotation Yrotation
      JOINT lShin
      {
        OFFSET 0 -36.8199 0.73152
        CHANNELS 3 Zrotation Xrotation Yrotation
        JOINT lFoot
        {
          OFFSET -0.73152 -45.1104 -5.12064
          CHANNELS 3 Zrotation Xrotation Yrotation
          End Site
          {
            OFFSET 1.1221 -3.69964 12.103
          }
        }
      }
    }
  }
}
MOTION
Frames:	4
Frame Time:	0.03333
1.004999990342185 57.24589920043945 13.498159926384687 -13.545800596475601 -36.6130006313324 15.870599895715714 7.059419900178909 9.732149988412857 12.430099546909332 -1.0407599620521069 -10.914100259542465 3.437429890036583 -2.1891700476408005 12.881200164556503 4.293130002915859 5.969409719109535 -30.737501084804535 10.397799834609032 0.0 0.0 0.0 0.0 0.0 0.0 0.0 0.0 0.0 50.19609868526459 62.50130116939545 22.108799815177917 -28.408201038837433 -36.8393012881279 78.42300117015839 -8.62734004855156 -60.897597670555115 -14.624200165271759 3.2383695725002326e-09 -3.646363211373682e-08 3.6706637729366776e-10 5.539888547900773e-09 -6.264940566325095e-08 7.827338777133264e-10 3.2383695725002326e-09 -3.646363211373682e-08 3.6706637729366776e-10 7.7309102565050125 5.474880114197731 0.41731400415301323 3.2383695725002326e-09 -3.646363211373682e-08 3.6706637729366776e-10 2.905540131032467 0.9651830233633518 0.102901995414868 3.2383695725002326e-09 -3.646363211373682e-08 3.6706637729366776e-10 10.27859978377819 0.7318009994924068 0.025912300043273717 3.2383695725002326e-09 -3.646363211373682e-08 3.6706637729366776e-10 2.221670038998127 -0.733487019315362 -0.2089200052432716 0.0 0.0 0.0 -63.770302534103394 18.544000536203384 -31.127800047397614 28.09300124645233 -31.19789958000183 -69.16460037231445 0.22804400883615017 13.476000130176544 -1.9300099834799767 1.5239010053846869e-09 -4.026219357911032e-09 -1.6933654478634708e-09 2.6135893449463765e-09 -6.868106083857128e-09 -2.9454838568199193e-09 1.5239010053846869e-09 -4.026219357911032e-09 -1.6933654478634708e-09 -7.7309102565050125 5.474880114197731 -0.41731400415301323 1.5239010053846869e-09 -4.026219357911032e-09 -1.6933654478634708e-09 -2.905540131032467 0.9651830233633518 -0.102901995414868 1.5239010053846869e-09 -4.026219357911032e-09 -1.6933654478634708e-09 -10.27859978377819 0.7318009994924068 -0.025912300043273717 1.5239010053846869e-09 -4.026219357911032e-09 -1.6933654478634708e-09 -2.221670038998127 -0.733487019315362 0.2089200052432716 0.0 0.0 0.0 -20.295999348163605 -17.554699927568436 -32.15539991855621 -1.1035600304603577 66.80920243263245 3.4594300389289856 -7.515160068869591 -15.200299769639969 -26.23040020465851 0.0 0.0 0.0 68.26120018959045 -50.93590021133423 72.93699860572815 3.218259885907173 74.69499886035919 -3.077010065317154 4.612849988043308 -2.5192700140178204 22.958099842071533
1.275000001071021 57.51319885253906 14.801759880036116 -12.21280038356781 -34.279999136924744 15.007400661706924 6.12915001809597 9.590900167822838 12.71009936928749 -0.8671140018850565 -10.80550029873848 3.5029998421669006 -2.5192700140178204 12.91059985756874 3.385760150849819 6.03689007461071 -31.34100079536438 8.65245021879673 0.0 0.0 0.0 0.0 0.0 0.0 0.0 0.0 0.0 46.58710062503815 62.69980072975159 27.050399780273438 -28.332098722457886 -37.97509878873825 80.3611010313034 -7.725669890642166 -59.09850060939789 -13.582199513912201 -1.0506795433684601e-09 -6.834852683823556e-09 -1.4004797321831575e-09 -1.7496404325356707e-09 -1.0878977718675742e-08 -2.445403879391961e-09 -1.0506795433684601e-09 -6.834852683823556e-09 -1.4004797321831575e-09 7.7309102565050125 5.474880114197731 0.41731400415301323 -1.0506795433684601e-09 -6.834852683823556e-09 -1.4004797321831575e-09 2.905540131032467 0.9651830233633518 0.102901995414868 -1.0506795433684601e-09 -6.834852683823556e-09 -1.4004797321831575e-09 10.27859978377819 0.7318009994924068 0.025912300043273717 -1.0506795433684601e-09 -6.834852683823556e-09 -1.4004797321831575e-09 2.221670038998127 -0.733487019315362 -0.2089200052432716 0.0 0.0 0.0 -63.606500029563904 22.2134006023407 -31.333799064159393 27.994301319122314 -30.5783012509346 -68.17650139331818 0.19667800515890121 12.52879947423935 -1.7897500656545162 -1.4580336937797256e-09 8.354277269972954e-09 -5.410072390077403e-10 -2.525979425627156e-09 1.4467786968452856e-08 -9.259792932425626e-10 -1.4580336937797256e-09 8.354277269972954e-09 -5.410072390077403e-10 -7.7309102565050125 5.474880114197731 -0.41731400415301323 -1.4580336937797256e-09 8.354277269972954e-09 -5.410072390077403e-10 -2.905540131032467 0.9651830233633518 -0.102901995414868 -1.4580336937797256e-09 8.354277269972954e-09 -5.410072390077403e-10 -10.27859978377819 0.7318009994924068 -0.025912300043273717 -1.4573942053175415e-09 8.354277269972954e-09 -5.410072390077403e-10 -2.221670038998127 -0.733487019315362 0.2089200052432716 0.0 0.0 0.0 -19.254799336194992 -17.13589981198311 -28.673600256443024 -1.1740199849009514 67.43350267410278 3.4684399142861366 -6.194119825959206 -12.185799926519394 -26.721099615097046 0.0 0.0 0.0 64.86820042133331 -52.749502658843994 70.55359840393066 3.122359849512577 74.26279842853546 -2.932180166244507 4.5380401611328125 -2.3743299767374992 22.82670110464096
1.5374000023584813 57.77690124511719 16.195059936493635 -10.707299932837486 -31.862701177597046 14.005099385976791 5.074340142309666 9.578010141849518 12.939799726009369 -0.7757250219583511 -10.718199759721756 3.5470500960946083 -2.8714800998568535 13.012200593948364 2.4603100307285786 6.094279959797859 -31.913301050662994 6.857829764485359 0.0 0.0 0.0 0.0 0.0 0.0 -6.394884621840902e-13 0.0 0.0 40.3930002450943 63.22499871253967 35.03470033407211 -28.121800124645233 -39.71509873867035 83.41260194778442 -6.708110198378563 -56.75970017910004 -12.3826003074646 -5.91782622905157e-09 2.687130518097547e-08 -2.758753225862165e-09 -1.0050200671685161e-08 4.768025974044576e-08 -4.9969628435064806e-09 -5.91782622905157e-09 2.687130518097547e-08 -2.758753225862165e-09 7.7309102565050125 5.474880114197731 0.41731400415301323 -5.91782622905157e-09 2.687130518097547e-08 -2.758753225862165e-09 2.905540131032467 0.9651830233633518 0.102901995414868 -5.91782622905157e-09 2.687130518097547e-08 -2.758753225862165e-09 10.27859978377819 0.7318009994924068 0.025912300043273717 -5.91782622905157e-09 2.687130518097547e-08 -2.758753225862165e-09 2.221670038998127 -0.733487019315362 -0.2089200052432716 -6.394884621840902e-13 0.0 0.0 -63.201701045036316 26.058999001979828 -31.888498663902283 27.85809874534607 -29.82439935207367 -66.96849882602692 0.16767499619163573 11.591300368309021 -1.6518699377775192 -3.8548364500456955e-09 1.712805897113867e-08 9.669065548223443e-10 -6.651319495176722e-09 2.9552040814451175e-08 1.7061552171071526e-09 -3.8548364500456955e-09 1.712805897113867e-08 9.669065548223443e-10 -7.7309102565050125 5.474880114197731 -0.41731400415301323 -3.8548364500456955e-09 1.712805897113867e-08 9.669065548223443e-10 -2.905540131032467 0.9651830233633518 -0.102901995414868 -3.8548364500456955e-09 1.712805897113867e-08 9.669065548223443e-10 -10.27859978377819 0.7318009994924068 -0.025912300043273717 -3.8548364500456955e-09 1.712805897113867e-08 9.669065548223443e-10 -2.221670038998127 -0.733487019315362 0.2089200052432716 0.0 0.0 0.0 -18.32299992442131 -17.278000563383102 -24.985098838806152 -1.3817099668085575 69.17000234127045 3.5873298346996307 -4.48501992970705 -8.710770159959793 -26.8461012840271 0.0 0.0 0.0 60.61890006065369 -54.51610207557678 67.38229930400848 3.0102401599287987 73.76830101013184 -2.792209926992655 4.4556500762701035 -2.292379941791296 22.644300162792206
1.7606999974232167 58.04280090332031 17.66265992447734 -9.188600331544876 -29.424699246883392 12.90849968791008 4.15066983550787 9.814090132713318 13.077199906110764 -0.8486009761691093 -10.692699998617172 3.561140075325966 -3.2039999216794968 13.177600353956223 1.5577099844813347 6.224699690937996 -32.41059869527817 5.116150081157684 0.0 0.0 0.0 0.0 0.0 0.0 0.0 0.0 0.0 30.498899817466736 63.25050115585327 47.329498529434204 -27.698601186275482 -41.98919892311096 87.36050248146057 -5.569910109043121 -53.640398383140564 -10.999700278043747 -6.245883810152009e-09 1.4107115475781029e-08 -9.745804163685534e-10 -1.070056043772638e-08 2.540815557949827e-08 -1.9414869711908977e-09 -6.245883810152009e-09 1.4107115475781029e-08 -9.745804163685534e-10 7.7309102565050125 5.474880114197731 0.41731400415301323 -6.245883810152009e-09 1.4107115475781029e-08 -9.745804163685534e-10 2.905540131032467 0.9651830233633518 0.102901995414868 -6.245883810152009e-09 1.4107115475781029e-08 -9.745804163685534e-10 10.27859978377819 0.7318009994924068 0.025912300043273717 -6.245883810152009e-09 1.4107115475781029e-08 -9.745804163685534e-10 2.221670038998127 -0.733487019315362 -0.2089200052432716 0.0 0.0 0.0 -62.34600126743317 29.91230070590973 -32.89950102567673 27.671701312065125 -28.917099237442017 -65.51730036735535 0.144884999608621 10.72669968008995 -1.5258200280368328 -2.2254198484006338e-10 -3.4276581573067233e-10 1.1114309472759487e-09 -3.7474023883987684e-10 -6.548361852765083e-10 1.9338131096446887e-09 -2.2254198484006338e-10 -3.4276581573067233e-10 1.1114309472759487e-09 -7.7309102565050125 5.474880114197731 -0.41731400415301323 -2.2254198484006338e-10 -3.4276581573067233e-10 1.1114309472759487e-09 -2.905540131032467 0.9651830233633518 -0.102901995414868 -2.2254198484006338e-10 -3.4276581573067233e-10 1.1114309472759487e-09 -10.27859978377819 0.7318009994924068 -0.025912300043273717 -2.2254198484006338e-10 -3.4276581573067233e-10 1.1114309472759487e-09 -2.221670038998127 -0.733487019315362 0.2089200052432716 0.0 0.0 0.0 -17.289299368858337 -18.25639933347702 -21.349300146102905 -1.8488500267267227 72.35709965229034 3.933979868888855 -2.421059925109148 -4.723130017518997 -26.457800567150116 0.0 0.0 0.0 55.653600096702576 -55.986698269844055 63.370798230171204 2.8791699931025505 73.26560139656067 -2.694950010627508 4.421600103378296 -2.4468200281262398 22.405300587415695
